<?xml version="1.0" encoding="utf-8"?>
<!-- Generator: Adobe Illustrator 15.1.0, SVG Export Plug-In . SVG Version: 6.00 Build 0)  -->
<!DOCTYPE svg PUBLIC "-//W3C//DTD SVG 1.0//EN" "http://www.w3.org/TR/2001/REC-SVG-20010904/DTD/svg10.dtd">
<svg version="1.0" id="Layer_1" xmlns="http://www.w3.org/2000/svg" xmlns:xlink="http://www.w3.org/1999/xlink" x="0px" y="0px"
	  width="100%" height="100%" viewBox="0 0 50 50" enable-background="new 0 0 50 50" xml:space="preserve" preserveAspectRatio="xMinYMin slice">
<g>
	<path fill="#FFFFFF" d="M2.303,12.271c1.318,0.708,19.571,10.513,20.25,10.878c0.68,0.365,1.56,0.542,2.447,0.542
		s1.768-0.176,2.447-0.542c0.679-0.365,18.933-10.169,20.251-10.878c1.318-0.708,2.567-2.932,0.144-2.932H2.159
		C-0.263,9.34,0.984,11.563,2.303,12.271z M48.256,17.671c-1.498,0.782-19.891,10.401-20.809,10.877
		c-0.918,0.48-1.56,0.543-2.447,0.543s-1.529-0.062-2.447-0.543c-0.917-0.477-19.31-10.096-20.809-10.877
		c-1.054-0.549-1.045,0.095-1.045,0.593c0,0.498,0,19.808,0,19.808c0,1.131,1.508,2.588,2.678,2.588h43.246
		c1.171,0,2.678-1.457,2.678-2.588c0,0,0-19.31,0-19.808C49.301,17.767,49.312,17.122,48.256,17.671z"/>
</g>
</svg>
