<?xml version="1.0" encoding="UTF-8" standalone="no"?>
<svg width="21px" height="21px" viewBox="0 0 21 21" version="1.1" xmlns="http://www.w3.org/2000/svg" xmlns:xlink="http://www.w3.org/1999/xlink">
    <!-- Generator: Sketch 39.1 (31720) - http://www.bohemiancoding.com/sketch -->
    <title>search</title>
    <desc>Created with Sketch.</desc>
    <defs></defs>
    <g id="Page-1" stroke="none" stroke-width="1" fill="none" fill-rule="evenodd">
        <g id="search" fill="#4A4E4E">
            <path d="M10.495689,14.9337953 C14.4420006,14.4416972 17.495689,11.0753067 17.495689,6.99568901 C17.495689,2.57741102 13.913967,-1.00431099 9.49568901,-1.00431099 C5.07741102,-1.00431099 1.49568901,2.57741102 1.49568901,6.99568901 C1.49568901,11.0753067 4.54937744,14.4416972 8.49568901,14.9337953 L8.49568901,23.995689 L10.495689,23.995689 L10.495689,14.9337953 Z M9.49568901,12.995689 C12.8093975,12.995689 15.495689,10.3093975 15.495689,6.99568901 C15.495689,3.68198052 12.8093975,0.995689014 9.49568901,0.995689014 C6.18198052,0.995689014 3.49568901,3.68198052 3.49568901,6.99568901 C3.49568901,10.3093975 6.18198052,12.995689 9.49568901,12.995689 Z" transform="translate(9.495689, 11.495689) rotate(-315.000000) translate(-9.495689, -11.495689) "></path>
        </g>
    </g>
</svg>