<?xml version="1.0" encoding="utf-8"?>
<!-- Generator: Adobe Illustrator 15.1.0, SVG Export Plug-In . SVG Version: 6.00 Build 0)  -->
<!DOCTYPE svg PUBLIC "-//W3C//DTD SVG 1.0//EN" "http://www.w3.org/TR/2001/REC-SVG-20010904/DTD/svg10.dtd">
<svg version="1.0" id="Layer_1" xmlns="http://www.w3.org/2000/svg" xmlns:xlink="http://www.w3.org/1999/xlink" x="0px" y="0px"
	 width="50px" height="50px" viewBox="0 0 50 50" enable-background="new 0 0 50 50" xml:space="preserve">
<g>
	<g>
		<defs>
			<rect id="SVGID_1_" x="0.215" y="8.4" width="49.57" height="33.199"/>
		</defs>
		<clipPath id="SVGID_2_">
			<use xlink:href="#SVGID_1_"  overflow="visible"/>
		</clipPath>
		<g clip-path="url(#SVGID_2_)">
			<g>
				<rect x="-1.059" y="7.554" fill="#303187" width="52.101" height="34.892"/>
				<polygon fill="#FFFFFF" points="-1.059,7.554 5.472,7.554 19.141,16.708 19.141,7.554 30.853,7.554 30.853,16.706 44.514,7.554 
					51.042,7.554 51.042,7.554 51.042,11.923 40.264,19.143 51.042,19.143 51.042,30.857 40.264,30.857 51.042,38.076 
					51.042,42.445 44.518,42.445 30.853,33.293 30.853,42.445 19.141,42.445 19.141,33.289 5.469,42.445 -1.059,42.445 
					-1.059,38.077 9.722,30.857 -1.059,30.857 -1.059,19.143 9.724,19.143 -1.059,11.922 				"/>
				<polygon fill="#EC1C24" points="19.141,31.693 19.141,30.857 16.248,30.857 -1.059,42.445 3.082,42.445 				"/>
				<polygon fill="#EC1C24" points="30.853,18.304 30.853,19.143 33.737,19.143 51.042,7.554 46.901,7.554 				"/>
				<polygon fill="#EC1C24" points="-1.059,10.324 12.109,19.143 16.249,19.143 -1.059,7.554 -1.059,7.554 				"/>
				<polygon fill="#EC1C24" points="33.74,30.857 51.042,42.445 51.042,39.674 37.878,30.857 				"/>
				<polygon fill="#EC1C24" points="28.509,21.486 28.509,7.554 21.48,7.554 21.48,21.486 -1.059,21.486 -1.059,28.514 
					21.48,28.514 21.48,42.445 28.509,42.445 28.509,28.514 51.042,28.514 51.042,21.486 				"/>
				<rect x="-1.059" y="7.554" fill="none" stroke="#231F20" stroke-width="0.1" width="52.101" height="34.892"/>
			</g>
			<g>
				<defs>
					<polygon id="SVGID_3_" points="-1.059,42.445 -1.059,7.554 51.042,7.554 					"/>
				</defs>
				<clipPath id="SVGID_4_">
					<use xlink:href="#SVGID_3_"  overflow="visible"/>
				</clipPath>
				<g clip-path="url(#SVGID_4_)">
					<rect x="-1.059" y="7.554" fill="#FFFFFF" width="52.104" height="34.893"/>
					<g>
						<rect x="-1.059" y="7.554" fill="#EC1C24" width="52.104" height="2.739"/>
						<rect x="-1.059" y="12.913" fill="#EC1C24" width="52.104" height="2.74"/>
						<rect x="-1.059" y="18.271" fill="#EC1C24" width="52.104" height="2.741"/>
						<rect x="-1.059" y="23.631" fill="#EC1C24" width="52.104" height="2.741"/>
						<rect x="-1.059" y="28.989" fill="#EC1C24" width="52.104" height="2.741"/>
						<rect x="-1.059" y="34.349" fill="#EC1C24" width="52.104" height="2.741"/>
						<rect x="-1.059" y="39.708" fill="#EC1C24" width="52.104" height="2.74"/>
					</g>
					<rect x="-1.059" y="7.554" fill="#303187" width="23.448" height="18.816"/>
					<g>
						<polygon fill="#FFFFFF" points="0.869,9.822 1.463,10.251 1.236,9.556 1.83,9.125 1.096,9.125 0.869,8.429 0.643,9.125 
							-0.088,9.125 0.505,9.556 0.277,10.251 						"/>
						<polygon fill="#FFFFFF" points="4.789,9.822 5.38,10.251 5.155,9.556 5.746,9.125 5.015,9.125 4.789,8.429 4.562,9.125 
							3.83,9.125 4.421,9.556 4.197,10.251 						"/>
						<polygon fill="#FFFFFF" points="8.707,9.822 9.299,10.251 9.073,9.556 9.665,9.125 8.936,9.125 8.707,8.429 8.479,9.125 
							7.749,9.125 8.34,9.556 8.115,10.251 						"/>
						<polygon fill="#FFFFFF" points="12.625,9.822 13.217,10.251 12.992,9.556 13.582,9.125 12.852,9.125 12.625,8.429 
							12.399,9.125 11.667,9.125 12.259,9.556 12.031,10.251 						"/>
						<polygon fill="#FFFFFF" points="16.542,9.822 17.136,10.251 16.909,9.556 17.502,9.125 16.77,9.125 16.542,8.429 
							16.315,9.125 15.585,9.125 16.178,9.556 15.952,10.251 						"/>
						<polygon fill="#FFFFFF" points="20.461,9.822 21.054,10.251 20.827,9.556 21.419,9.125 20.687,9.125 20.461,8.429 
							20.233,9.125 19.502,9.125 20.094,9.556 19.869,10.251 						"/>
						<polygon fill="#FFFFFF" points="2.828,11.715 3.422,12.145 3.195,11.448 3.787,11.018 3.055,11.018 2.828,10.321 
							2.603,11.018 1.87,11.018 2.463,11.448 2.237,12.145 						"/>
						<polygon fill="#FFFFFF" points="6.747,11.715 7.34,12.145 7.114,11.448 7.706,11.018 6.976,11.018 6.747,10.321 6.521,11.018 
							5.789,11.018 6.383,11.448 6.156,12.145 						"/>
						<polygon fill="#FFFFFF" points="10.666,11.715 11.258,12.145 11.033,11.448 11.624,11.018 10.893,11.018 10.666,10.321 
							10.439,11.018 9.707,11.018 10.299,11.448 10.072,12.145 						"/>
						<polygon fill="#FFFFFF" points="14.585,11.715 15.177,12.145 14.95,11.448 15.542,11.018 14.812,11.018 14.585,10.321 
							14.358,11.018 13.627,11.018 14.218,11.448 13.991,12.145 						"/>
						<polygon fill="#FFFFFF" points="18.504,11.715 19.095,12.145 18.868,11.448 19.462,11.018 18.728,11.018 18.504,10.321 
							18.276,11.018 17.545,11.018 18.135,11.448 17.91,12.145 						"/>
						<polygon fill="#FFFFFF" points="0.869,13.608 1.463,14.037 1.236,13.341 1.83,12.91 1.096,12.91 0.869,12.215 0.643,12.91 
							-0.088,12.91 0.505,13.341 0.277,14.037 						"/>
						<polygon fill="#FFFFFF" points="4.789,13.608 5.38,14.037 5.155,13.341 5.746,12.91 5.015,12.91 4.789,12.215 4.562,12.91 
							3.83,12.91 4.421,13.341 4.197,14.037 						"/>
						<polygon fill="#FFFFFF" points="8.707,13.608 9.299,14.037 9.073,13.341 9.665,12.91 8.936,12.91 8.707,12.215 8.479,12.91 
							7.749,12.91 8.34,13.341 8.115,14.037 						"/>
						<polygon fill="#FFFFFF" points="12.625,13.608 13.217,14.037 12.992,13.341 13.582,12.91 12.852,12.91 12.625,12.215 
							12.399,12.91 11.667,12.91 12.259,13.341 12.031,14.037 						"/>
						<polygon fill="#FFFFFF" points="16.542,13.608 17.136,14.037 16.909,13.341 17.502,12.91 16.77,12.91 16.542,12.215 
							16.315,12.91 15.585,12.91 16.178,13.341 15.952,14.037 						"/>
						<polygon fill="#FFFFFF" points="20.461,13.608 21.054,14.037 20.827,13.341 21.419,12.91 20.687,12.91 20.461,12.215 
							20.233,12.91 19.502,12.91 20.094,13.341 19.869,14.037 						"/>
						<polygon fill="#FFFFFF" points="2.828,15.5 3.422,15.93 3.195,15.233 3.787,14.803 3.055,14.803 2.828,14.106 2.603,14.803 
							1.87,14.803 2.463,15.233 2.237,15.93 						"/>
						<polygon fill="#FFFFFF" points="6.747,15.5 7.34,15.93 7.114,15.233 7.706,14.803 6.976,14.803 6.747,14.106 6.521,14.803 
							5.789,14.803 6.383,15.233 6.156,15.93 						"/>
						<polygon fill="#FFFFFF" points="10.666,15.5 11.258,15.93 11.033,15.233 11.624,14.803 10.893,14.803 10.666,14.106 
							10.439,14.803 9.707,14.803 10.299,15.233 10.072,15.93 						"/>
						<polygon fill="#FFFFFF" points="14.585,15.5 15.177,15.93 14.95,15.233 15.542,14.803 14.812,14.803 14.585,14.106 
							14.358,14.803 13.627,14.803 14.218,15.233 13.991,15.93 						"/>
						<polygon fill="#FFFFFF" points="18.504,15.5 19.095,15.93 18.868,15.233 19.462,14.803 18.728,14.803 18.504,14.106 
							18.276,14.803 17.545,14.803 18.135,15.233 17.91,15.93 						"/>
						<polygon fill="#FFFFFF" points="0.869,17.393 1.463,17.822 1.236,17.127 1.83,16.696 1.096,16.696 0.869,16 0.643,16.696 
							-0.088,16.696 0.505,17.127 0.277,17.822 						"/>
						<polygon fill="#FFFFFF" points="4.789,17.393 5.38,17.822 5.155,17.127 5.746,16.696 5.015,16.696 4.789,16 4.562,16.696 
							3.83,16.696 4.421,17.127 4.197,17.822 						"/>
						<polygon fill="#FFFFFF" points="8.707,17.393 9.299,17.822 9.073,17.127 9.665,16.696 8.936,16.696 8.707,16 8.479,16.696 
							7.749,16.696 8.34,17.127 8.115,17.822 						"/>
						<polygon fill="#FFFFFF" points="12.625,17.393 13.217,17.822 12.992,17.127 13.582,16.696 12.852,16.696 12.625,16 
							12.399,16.696 11.667,16.696 12.259,17.127 12.031,17.822 						"/>
						<polygon fill="#FFFFFF" points="16.542,17.393 17.136,17.822 16.909,17.127 17.502,16.696 16.77,16.696 16.542,16 
							16.315,16.696 15.585,16.696 16.178,17.127 15.952,17.822 						"/>
						<polygon fill="#FFFFFF" points="20.461,17.393 21.054,17.822 20.827,17.127 21.419,16.696 20.687,16.696 20.461,16 
							20.233,16.696 19.502,16.696 20.094,17.127 19.869,17.822 						"/>
						<polygon fill="#FFFFFF" points="2.828,19.286 3.422,19.716 3.195,19.019 3.787,18.588 3.055,18.588 2.828,17.891 
							2.603,18.588 1.87,18.588 2.463,19.019 2.237,19.716 						"/>
						<polygon fill="#FFFFFF" points="6.747,19.286 7.34,19.716 7.114,19.019 7.706,18.588 6.976,18.588 6.747,17.891 6.521,18.588 
							5.789,18.588 6.383,19.019 6.156,19.716 						"/>
						<polygon fill="#FFFFFF" points="10.666,19.286 11.258,19.716 11.033,19.019 11.624,18.588 10.893,18.588 10.666,17.891 
							10.439,18.588 9.707,18.588 10.299,19.019 10.072,19.716 						"/>
						<polygon fill="#FFFFFF" points="14.585,19.286 15.177,19.716 14.95,19.019 15.542,18.588 14.812,18.588 14.585,17.891 
							14.358,18.588 13.627,18.588 14.218,19.019 13.991,19.716 						"/>
						<polygon fill="#FFFFFF" points="18.504,19.286 19.095,19.716 18.868,19.019 19.462,18.588 18.728,18.588 18.504,17.891 
							18.276,18.588 17.545,18.588 18.135,19.019 17.91,19.716 						"/>
						<polygon fill="#FFFFFF" points="0.869,21.179 1.463,21.608 1.236,20.912 1.83,20.48 1.096,20.48 0.869,19.785 0.643,20.48 
							-0.088,20.48 0.505,20.912 0.277,21.608 						"/>
						<polygon fill="#FFFFFF" points="4.789,21.179 5.38,21.608 5.155,20.912 5.746,20.48 5.015,20.48 4.789,19.785 4.562,20.48 
							3.83,20.48 4.421,20.912 4.197,21.608 						"/>
						<polygon fill="#FFFFFF" points="8.707,21.179 9.299,21.608 9.073,20.912 9.665,20.48 8.936,20.48 8.707,19.785 8.479,20.48 
							7.749,20.48 8.34,20.912 8.115,21.608 						"/>
						<polygon fill="#FFFFFF" points="12.625,21.179 13.217,21.608 12.992,20.912 13.582,20.48 12.852,20.48 12.625,19.785 
							12.399,20.48 11.667,20.48 12.259,20.912 12.031,21.608 						"/>
						<polygon fill="#FFFFFF" points="16.542,21.179 17.136,21.608 16.909,20.912 17.502,20.48 16.77,20.48 16.542,19.785 
							16.315,20.48 15.585,20.48 16.178,20.912 15.952,21.608 						"/>
						<polygon fill="#FFFFFF" points="20.461,21.179 21.054,21.608 20.827,20.912 21.419,20.48 20.687,20.48 20.461,19.785 
							20.233,20.48 19.502,20.48 20.094,20.912 19.869,21.608 						"/>
						<polygon fill="#FFFFFF" points="2.828,23.071 3.422,23.502 3.195,22.806 3.787,22.374 3.055,22.374 2.828,21.677 
							2.603,22.374 1.87,22.374 2.463,22.806 2.237,23.502 						"/>
						<polygon fill="#FFFFFF" points="6.747,23.071 7.34,23.502 7.114,22.806 7.706,22.374 6.976,22.374 6.747,21.677 6.521,22.374 
							5.789,22.374 6.383,22.806 6.156,23.502 						"/>
						<polygon fill="#FFFFFF" points="10.666,23.071 11.258,23.502 11.033,22.806 11.624,22.374 10.893,22.374 10.666,21.677 
							10.439,22.374 9.707,22.374 10.299,22.806 10.072,23.502 						"/>
						<polygon fill="#FFFFFF" points="14.585,23.071 15.177,23.502 14.95,22.806 15.542,22.374 14.812,22.374 14.585,21.677 
							14.358,22.374 13.627,22.374 14.218,22.806 13.991,23.502 						"/>
						<polygon fill="#FFFFFF" points="18.504,23.071 19.095,23.502 18.868,22.806 19.462,22.374 18.728,22.374 18.504,21.677 
							18.276,22.374 17.545,22.374 18.135,22.806 17.91,23.502 						"/>
						<polygon fill="#FFFFFF" points="0.869,24.964 1.463,25.394 1.236,24.696 1.83,24.267 1.096,24.267 0.869,23.572 0.643,24.267 
							-0.088,24.267 0.505,24.696 0.277,25.394 						"/>
						<polygon fill="#FFFFFF" points="4.789,24.964 5.38,25.394 5.155,24.696 5.746,24.267 5.015,24.267 4.789,23.572 4.562,24.267 
							3.83,24.267 4.421,24.696 4.197,25.394 						"/>
						<polygon fill="#FFFFFF" points="8.707,24.964 9.299,25.394 9.073,24.696 9.665,24.267 8.936,24.267 8.707,23.572 
							8.479,24.267 7.749,24.267 8.34,24.696 8.115,25.394 						"/>
						<polygon fill="#FFFFFF" points="12.625,24.964 13.217,25.394 12.992,24.696 13.582,24.267 12.852,24.267 12.625,23.572 
							12.399,24.267 11.667,24.267 12.259,24.696 12.031,25.394 						"/>
						<polygon fill="#FFFFFF" points="16.542,24.964 17.136,25.394 16.909,24.696 17.502,24.267 16.77,24.267 16.542,23.572 
							16.315,24.267 15.585,24.267 16.178,24.696 15.952,25.394 						"/>
						<polygon fill="#FFFFFF" points="20.461,24.964 21.054,25.394 20.827,24.696 21.419,24.267 20.687,24.267 20.461,23.572 
							20.233,24.267 19.502,24.267 20.094,24.696 19.869,25.394 						"/>
					</g>
					<rect x="-1.059" y="7.554" fill="none" stroke="#231F20" stroke-width="0.1" width="52.104" height="34.893"/>
				</g>
			</g>
		</g>
	</g>
</g>
</svg>
