<?xml version="1.0" encoding="UTF-8" standalone="no"?>
<svg
   xmlns:dc="http://purl.org/dc/elements/1.1/"
   xmlns:cc="http://creativecommons.org/ns#"
   xmlns:rdf="http://www.w3.org/1999/02/22-rdf-syntax-ns#"
   xmlns:svg="http://www.w3.org/2000/svg"
   xmlns="http://www.w3.org/2000/svg"
   viewBox="0 0 396.85068 132.28346"
   xml:space="preserve"
   id="svg2"
   version="1.1"><metadata
     id="metadata8"><rdf:RDF><cc:Work
         rdf:about=""><dc:format>image/svg+xml</dc:format><dc:type
           rdf:resource="http://purl.org/dc/dcmitype/StillImage" /></cc:Work></rdf:RDF></metadata><defs
     id="defs6"><clipPath
       id="clipPath18"
       clipPathUnits="userSpaceOnUse"><path
         id="path16"
         d="M 0,0 H 297.638 V 99.213 H 0 Z" /></clipPath></defs><g
     transform="matrix(1.3333333,0,0,-1.3333333,0,132.28347)"
     id="g10"><g
       id="g12"><g
         clip-path="url(#clipPath18)"
         id="g14"><g
           transform="translate(123.8247,28.8259)"
           id="g20"><path
             id="path22"
             style="fill:#4c4a4b;fill-opacity:1;fill-rule:nonzero;stroke:none"
             d="M 0,0 -17.166,21.396 -0.807,41.263 H -14.671 L -28.243,23.046 V 41.263 H -39.686 V 0 h 11.443 V 19.379 L -14.818,0 H 0 M 50.352,0 33.259,41.263 H 19.688 L 3.256,0 h 11.371 l 2.934,7.641 H 34.8 L 37.808,0 Z M 32.012,15.16 H 20.275 l 3.961,10.087 c 0.734,2.079 1.248,3.974 1.761,5.808 h 0.147 c 0.513,-1.834 1.1,-3.729 1.907,-5.747 z m 64.041,6.297 c 0,14.671 -9.903,20.051 -24.795,20.051 -6.675,0 -12.984,-0.183 -16.872,-0.367 V 0.061 c 4.548,-0.183 9.463,-0.367 14.671,-0.367 16.139,0 26.996,7.642 26.996,21.763 M 83.802,20.723 c 0,-8.802 -5.868,-12.837 -13.718,-12.837 -1.76,0 -3.301,0.122 -4.254,0.244 v 25.248 c 1.247,0.122 2.787,0.122 4.695,0.122 10.269,0 13.277,-5.013 13.277,-12.777 m 29.491,20.54 H 101.849 V 0 h 11.444 z M 165.637,0 148.545,41.263 H 134.974 L 118.542,0 h 11.37 l 2.934,7.641 h 17.239 L 153.093,0 Z m -18.339,15.16 h -11.737 l 3.961,10.087 c 0.733,2.079 1.247,3.974 1.76,5.808 h 0.147 c 0.514,-1.834 1.101,-3.729 1.907,-5.747 z" /></g><g
           transform="translate(65.7205,78.8206)"
           id="g24"><path
             id="path26"
             style="fill:#4c4a4b;fill-opacity:1;fill-rule:nonzero;stroke:none"
             d="m 0,0 -5.301,5.335 c 4.136,-4.141 5.279,-10.405 3.883,-17.093 l 5.412,-5.419 C 5.276,-10.449 4.116,-4.122 0,0 m -7.495,7.532 c -8.347,8.359 -25.264,4.972 -37.785,-7.568 -12.521,-12.539 -15.904,-29.48 -7.556,-37.839 4.204,-4.211 10.554,-5.414 17.373,-3.919 l 0.942,4.998 0.707,3.752 c -5.175,-1.664 -9.915,-1.263 -12.788,1.61 -5.291,5.291 -2.258,16.901 6.773,25.932 2.138,2.139 4.422,3.928 6.731,5.363 7.476,4.706 15.253,5.572 19.307,1.511 2.169,-2.171 2.924,-5.399 2.434,-9.073 l -0.068,0.068 c -0.622,-5.336 -3.854,-11.637 -9.245,-17.028 -4.101,-4.1 -8.729,-6.948 -13.06,-8.358 l 4.229,-4.167 1.957,-1.929 c 4.287,2.063 8.538,5.061 12.385,8.914 3.917,3.921 6.949,8.264 9.012,12.634 l -1.991,1.994 -4.074,4.079 3.588,0.706 5.12,1.009 c 1.398,6.826 0.185,13.13 -3.991,17.311 m -43.396,-47.358 5.609,-5.52 c 4.235,-4.241 10.244,-5.256 17.363,-3.843 l -5.437,5.447 c -6.913,-1.483 -13.308,-0.316 -17.535,3.916" /></g><g
           transform="translate(45.3943,80.9355)"
           id="g28"><path
             id="path30"
             style="fill:#bfdf14;fill-opacity:1;fill-rule:nonzero;stroke:none"
             d="m 0,0 c -6.414,-0.735 -12.903,-3.757 -18.159,-9.013 -5.466,-5.466 -8.551,-12.297 -9.153,-18.986 l 5.72,-5.721 c 0.567,6.712 3.625,13.553 9.082,19.01 5.241,5.241 11.76,8.269 18.216,9.004 z" /></g></g></g></g></svg>